PathFileType	4	(X/Y/Z)	s05c0401.trc
DataRate	CameraRate	NumFrames	NumMarkers	Units	OrigDataRate	OrigDataStartFrame	OrigNumFrames
200	200	4	50	mm	200	0	2000
Frame#	Time	racr			lacr			c7			jug			rlel			rdr			llel			ldr			s2			lic			ric			lasi			rasi			rpsi			lpsi			rgt			lgt			rth1			rth2			rth3			rth4			rlfc			rmfc			rsh1			rsh2			rsh3			rsh4			rlmal			rmmal			rcal			rtoe			rmt5			lth1			lth2			lth4			lth3			llfc			lmfc			lsh1			lsh2			lsh3			lsh4			llmal			lmmal			lcal			ltoe			lmt5			SBIKE			LBIKE			RBIKE			
		X1	Y1	Z1	X2	Y2	Z2	X3	Y3	Z3	X4	Y4	Z4	X5	Y5	Z5	X6	Y6	Z6	X7	Y7	Z7	X8	Y8	Z8	X9	Y9	Z9	X10	Y10	Z10	X11	Y11	Z11	X12	Y12	Z12	X13	Y13	Z13	X14	Y14	Z14	X15	Y15	Z15	X16	Y16	Z16	X17	Y17	Z17	X18	Y18	Z18	X19	Y19	Z19	X20	Y20	Z20	X21	Y21	Z21	X22	Y22	Z22	X23	Y23	Z23	X24	Y24	Z24	X25	Y25	Z25	X26	Y26	Z26	X27	Y27	Z27	X28	Y28	Z28	X29	Y29	Z29	X30	Y30	Z30	X31	Y31	Z31	X32	Y32	Z32	X33	Y33	Z33	X34	Y34	Z34	X35	Y35	Z35	X36	Y36	Z36	X37	Y37	Z37	X38	Y38	Z38	X39	Y39	Z39	X40	Y40	Z40	X41	Y41	Z41	X42	Y42	Z42	X43	Y43	Z43	X44	Y44	Z44	X45	Y45	Z45	X46	Y46	Z46	X47	Y47	Z47	X48	Y48	Z48	X49	Y49	Z49	X50	Y50	Z50	
0	0.0000	394.152046	1402.002677	-146.807493	398.235448	1419.751077	-437.148794	368.241206	1489.657890	-296.148641	367.531884	1330.941200	-294.741360	500.390445	1161.886288	-54.194844	684.795013	967.606950	-76.000935	487.410076	1163.582712	-531.573740	681.917719	968.134523	-509.315327	-113.397787	1154.170689	-274.873055	31.266191	1175.261261	-418.992085	34.356904	1193.557849	-138.554845	84.336920	1124.305173	-388.968822	77.243417	1132.565597	-165.600360	-85.092602	1203.317165	-236.604777	-84.154636	1204.459648	-322.712698	1.852255	1060.399310	-105.104255	-31.323284	1065.703200	-444.074546	101.387886	1001.171220	-90.914765	189.061554	984.594459	-90.173997	255.036400	926.203424	-93.713821	204.053164	1016.795935	-102.067422	389.596384	848.120023	-122.675618	376.594104	841.729094	-233.167489	327.346267	754.370127	-99.371512	321.401069	665.820228	-108.524901	275.611203	593.750950	-112.324211	349.684444	657.728322	-132.399734	241.357025	462.753432	-122.639538	252.923008	486.205757	-202.424169	169.200224	431.230591	-167.419237	463.021233	405.685813	-159.893622	361.779354	382.965997	-95.035634	54.707033	953.854731	-464.857178	127.314385	908.703260	-466.904051	155.281569	930.391518	-453.347167	167.573589	826.459828	-467.878140	246.907242	697.097444	-442.813347	237.261333	687.921375	-333.187901	148.383867	615.425272	-461.768624	107.839527	538.643604	-448.932166	31.898779	492.794256	-444.439775	132.885306	519.715348	-426.685713	-46.228226	396.783235	-433.156839	-13.185929	409.004983	-356.568682	-118.055417	381.576086	-388.211789	146.340684	254.238025	-402.541740	34.593037	270.351292	-462.818033	-220.929099	912.066891	-274.866268	-53.486772	79.214598	-474.982776	-53.210231	78.772964	-77.342710	
1	0.0050	394.215017	1401.981328	-146.836176	398.312299	1419.789025	-437.169858	368.314633	1489.642980	-296.140135	367.569188	1330.956517	-294.776275	500.301508	1161.837396	-54.051190	684.718927	967.579004	-76.074680	487.421178	1163.592105	-531.574271	681.896003	968.135676	-509.256306	-113.044083	1154.060680	-274.825413	31.331810	1175.223741	-419.005605	34.435070	1193.567461	-138.587234	84.409698	1124.275017	-388.979073	77.309835	1132.588554	-165.609665	-85.007631	1203.331216	-236.633516	-84.065340	1204.439431	-322.758522	1.942434	1060.376932	-105.137196	-31.259719	1065.694555	-444.072748	101.436024	1001.172374	-90.925121	189.116148	984.626741	-90.184360	255.111360	926.216702	-93.760711	204.098252	1016.852099	-102.071431	389.698240	848.175205	-122.719794	376.663608	841.773119	-233.180858	327.451942	754.454607	-99.405681	321.489115	665.903246	-108.543908	275.682152	593.817144	-112.356344	349.774901	657.797369	-132.433158	241.357162	462.899997	-122.660333	253.051878	486.410171	-202.681473	169.214102	431.354394	-167.394967	463.018782	405.698567	-159.891332	361.761248	383.011692	-95.049646	54.782103	953.828176	-464.847709	127.409188	908.619760	-466.879611	155.345235	930.339391	-453.297795	167.629770	826.414793	-467.852571	246.919218	697.022934	-442.772539	237.267902	687.872192	-333.162218	148.410349	615.343923	-461.752854	107.850320	538.591692	-448.939721	31.901513	492.725786	-444.433891	132.856624	519.618892	-426.672477	-46.224757	396.725599	-433.160842	-13.172413	408.972552	-356.587767	-118.045093	381.514391	-388.215763	146.356055	254.210121	-402.542665	34.615592	270.304796	-462.816987	-220.921265	912.057071	-274.860786	-53.535789	79.268747	-475.030190	-53.227013	78.783925	-77.328016	
2	0.0100	394.265524	1401.985093	-146.827786	398.391432	1419.825980	-437.182441	368.404695	1489.623935	-296.189897	367.614470	1330.978300	-294.791717	500.236981	1161.798433	-53.924062	684.643176	967.545497	-76.143976	487.418325	1163.586177	-531.599658	681.885330	968.121563	-509.217750	-112.966527	1154.056736	-274.848327	31.433022	1175.182626	-419.033471	34.525551	1193.578081	-138.616947	84.506532	1124.238738	-388.981021	77.384981	1132.574249	-165.631318	-84.939576	1203.331772	-236.637925	-83.971572	1204.425102	-322.792058	1.983860	1060.390317	-105.150607	-31.183504	1065.676500	-444.091645	101.486079	1001.179005	-90.931822	189.162444	984.652087	-90.217756	255.165874	926.266964	-93.807895	204.142462	1016.882176	-102.097347	389.762559	848.227266	-122.744769	376.746877	841.856735	-233.235603	327.560192	754.525552	-99.418758	321.584997	665.966663	-108.558671	275.733767	593.921073	-112.357483	349.829545	657.853831	-132.462517	241.403198	462.987285	-122.664592	253.092089	486.491201	-202.700804	169.231670	431.477657	-167.402209	463.021890	405.712817	-159.906332	361.766643	383.059175	-95.037454	54.838549	953.806242	-464.864403	127.452174	908.569773	-466.864633	155.393476	930.287656	-453.281104	167.652688	826.375697	-467.835505	246.931905	696.958563	-442.746004	237.246405	687.795325	-333.119458	148.421606	615.269174	-461.721551	107.849982	538.510437	-448.906416	31.898109	492.675556	-444.428775	132.845404	519.523945	-426.640852	-46.239623	396.660823	-433.154819	-13.211130	408.955766	-356.582964	-118.059276	381.453113	-388.205798	146.361497	254.184813	-402.555777	34.613331	270.264698	-462.806921	-220.920944	912.051334	-274.860691	-53.528596	79.260312	-475.020010	-53.219811	78.775337	-77.338921	
3	0.0150	394.314922	1401.980456	-146.847507	398.445258	1419.853429	-437.193705	368.488904	1489.589584	-296.193894	367.671105	1331.008571	-294.811684	500.175723	1161.762749	-53.798311	684.551304	967.516158	-76.201992	487.532051	1163.591986	-531.544295	681.531090	967.877485	-509.034118	-113.234071	1154.189109	-274.973297	31.477850	1175.126678	-419.006980	34.602063	1193.595428	-138.625838	84.366377	1124.687768	-388.768216	77.453167	1132.578730	-165.644142	-84.866084	1203.338335	-236.660120	-83.693518	1204.680706	-322.931895	2.029098	1060.393218	-105.152964	-31.006816	1065.598550	-444.087396	101.398662	1001.461984	-90.940167	189.225069	984.692191	-90.232367	254.982895	926.220025	-93.961841	204.186274	1016.900391	-102.110089	389.848681	848.280427	-122.779509	376.799340	841.930007	-233.262910	327.670905	754.606227	-99.439669	321.544010	666.024517	-108.891516	275.799143	593.998147	-112.358557	351.162949	658.846620	-132.428516	241.189008	463.615983	-122.450891	253.133409	486.366313	-202.456133	169.248473	431.576081	-167.384464	463.047181	405.713322	-159.902518	361.765290	383.113656	-95.051734	55.168807	954.079677	-465.201809	127.751558	907.950348	-466.833211	155.415751	930.162469	-453.157405	167.692146	826.314499	-467.789178	246.939173	696.888845	-442.702683	237.255429	687.734275	-333.095879	148.525100	615.149961	-461.742277	107.843730	538.449711	-448.866433	31.865682	492.615076	-444.430801	132.296080	519.382773	-426.124806	-46.292907	396.674975	-433.197652	-13.865483	409.491393	-356.475296	-118.066550	381.447322	-388.334092	146.368030	254.150286	-402.544347	34.620104	270.208956	-462.810773	-220.981538	912.077794	-275.101152	-53.525758	79.255890	-475.018520	-53.321644	79.015039	-77.181351	
